<svg  xmlns="http://www.w3.org/2000/svg" xmlns:xlink="http://www.w3.org/1999/xlink"><path d="M 6.2763018,-5.9136902e-8 C 5.8594262,7.3383335e-5 5.6507465,0.50394069 5.9455097,0.79872892 L 7.9893877,2.8427816 3.9621572,6.870013 A 0.80615652,0.80615652 0 1 0 5.1021734,8.0100291 L 9.1294047,3.9827986 11.144595,5.9979884 c 0.08438,0.084338 0.197722,0.1332757 0.316972,0.1367947 0.263717,0.00776 0.48173,-0.2037554 0.481757,-0.4675868 l 0,-5.19943499 C 11.943298,0.20933965 11.733808,2.501878e-5 11.475387,-5.9136898e-8 l -5.1990852,0 z M 0.86275326,1.4314492 a 0.80615652,0.80615652 0 0 0 -0.80607591,0.806076 l 0,8.9563988 A 0.80615652,0.80615652 0 0 0 0.86275326,12 l 8.95639904,0 a 0.80615652,0.80615652 0 0 0 0.8060757,-0.806076 l 0,-2.9897229 C 10.52061,8.1287856 10.421307,8.0451928 10.329072,7.9530019 a 1.8568897,1.8568897 0 0 1 -3.58e-4,-3.582e-4 L 9.0130683,6.636997 l 0,3.750842 -7.3442472,0 0,-7.3442469 3.7510169,0 -1.4288259,-1.428826 a 1.8568897,1.8568897 0 0 0 -1.792e-4,0 c -0.0582,-0.058204 -0.1113531,-0.1200506 -0.16216,-0.1833258 l -2.96593218,0 z" /></svg>
