<?xml version="1.0" encoding="UTF-8" standalone="no"?>
<svg
   xmlns:dc="http://purl.org/dc/elements/1.1/"
   xmlns:cc="http://creativecommons.org/ns#"
   xmlns:rdf="http://www.w3.org/1999/02/22-rdf-syntax-ns#"
   xmlns:svg="http://www.w3.org/2000/svg"
   xmlns="http://www.w3.org/2000/svg"
   xmlns:sodipodi="http://sodipodi.sourceforge.net/DTD/sodipodi-0.dtd"
   xmlns:inkscape="http://www.inkscape.org/namespaces/inkscape"
   version="1.1"
   id="Layer_1"
   x="0"
   y="0"
   width="19"
   height="19"
   viewBox="0"
   enable-background="new 0 0 425 300"
   xml:space="preserve"
   inkscape:version="0.91 r13725"
   sodipodi:docname="icon.svg"
   inkscape:export-filename="/media/stephen/7AB7-DE16/Chrome Extensions/TMDbImportFromIMDb/icon.png"
   inkscape:export-xdpi="90"
   inkscape:export-ydpi="90"><metadata
     id="metadata3486"><rdf:RDF><cc:Work
         rdf:about=""><dc:format>image/svg+xml</dc:format><dc:type
           rdf:resource="http://purl.org/dc/dcmitype/StillImage" /><dc:title></dc:title></cc:Work></rdf:RDF></metadata><defs
     id="defs3484" /><sodipodi:namedview
     pagecolor="#ffffff"
     bordercolor="#666666"
     borderopacity="1"
     objecttolerance="10"
     gridtolerance="10"
     guidetolerance="10"
     inkscape:pageopacity="0"
     inkscape:pageshadow="2"
     inkscape:window-width="1920"
     inkscape:window-height="1121"
     id="namedview3482"
     showgrid="false"
     units="px"
     width="19in"
     showborder="true"
     borderlayer="false"
     inkscape:showpageshadow="false"
     inkscape:zoom="32"
     inkscape:cx="1.5781251"
     inkscape:cy="8.5786437"
     inkscape:window-x="-4"
     inkscape:window-y="0"
     inkscape:window-maximized="1"
     inkscape:current-layer="Layer_1" /><linearGradient
     id="GRAYGRAD"
     gradientUnits="userSpaceOnUse"
     x1="94.059998"
     y1="-3.26"
     x2="201.53"
     y2="220.74001"
     gradientTransform="matrix(0.07307692,0,0,0.07307692,-1.1034615,1.7315306)"><stop
       offset="0"
       stop-color="#9C9C9C"
       id="stop3433" /><stop
       offset="0.17"
       stop-color="#848484"
       id="stop3435" /><stop
       offset="0.4"
       stop-color="#6B6B6B"
       id="stop3437" /><stop
       offset="0.54"
       stop-color="#616161"
       id="stop3439" /><stop
       offset="0.67"
       stop-color="#6A6A6A"
       id="stop3441" /><stop
       offset="0.88"
       stop-color="#828282"
       id="stop3443" /><stop
       offset="1"
       stop-color="#929292"
       id="stop3445" /></linearGradient><path
     d="m 19,9.2665 0,0 C 19,6.141 17.940385,3.1171 9.5,3.1171 1.0596154,3.1171 0,6.141 0,9.2665 l 0,0 c 0,3.1255 1.0596154,6.1494 9.5,6.1494 2.076115,0 3.705731,-0.1834 4.982385,-0.5057 0.587538,0.4407 2.83173,1.8204 3.224884,1.5566 0.401193,-0.2697 0.08988,-2.3918 -0.07015,-3.1591 C 18.764692,12.1859 19,10.7375 19,9.2665 Z m -15.2314231,0 c 0,-1.6968 0.6394231,-3.3389 5.7306923,-3.3389 5.0919998,0 5.7306928,1.6421 5.7306928,3.3396 0,1.6976 -0.639424,3.3396 -5.7306928,3.3396 C 4.408,12.6061 3.7685769,10.9633 3.7685769,9.2665 Z"
     id="path3447"
     style="fill:#668000"
     inkscape:connector-curvature="0" /><linearGradient
     id="GREENGRAD"
     gradientUnits="userSpaceOnUse"
     x1="29.84"
     y1="226.55"
     x2="29.84"
     y2="266.91"><stop
       offset="0"
       stop-color="#54660E"
       id="stop3450" /><stop
       offset="1"
       stop-color="#7B9711"
       id="stop3452" /></linearGradient></svg>