<?xml version="1.0" encoding="UTF-8" standalone="no"?>
<!-- Created with Inkscape (http://www.inkscape.org/) -->

<svg
   xmlns:dc="http://purl.org/dc/elements/1.1/"
   xmlns:cc="http://creativecommons.org/ns#"
   xmlns:rdf="http://www.w3.org/1999/02/22-rdf-syntax-ns#"
   xmlns:svg="http://www.w3.org/2000/svg"
   xmlns="http://www.w3.org/2000/svg"
   xmlns:sodipodi="http://sodipodi.sourceforge.net/DTD/sodipodi-0.dtd"
   xmlns:inkscape="http://www.inkscape.org/namespaces/inkscape"
   width="32"
   height="32"
   viewBox="0 0 31.999999 31.999998"
   id="svg4317"
   version="1.1"
   inkscape:version="0.91 r13725"
   sodipodi:docname="IMDbLogo.svg"
   inkscape:export-filename="/media/stephen/7AB7-DE16/Chrome Extensions/TMDbImportFromIMDb Gfx/IMDbLogo-32.png"
   inkscape:export-xdpi="90"
   inkscape:export-ydpi="90">
  <defs
     id="defs4319">
    <clipPath
       clipPathUnits="userSpaceOnUse"
       id="clipPath16-9">
      <path
         d="M 6.701,53.5 C 4.659,53.5 3,51.84 3,49.8 l 0,0 0,-24.6 c 0,-2.039 1.659,-3.7 3.701,-3.7 l 0,0 61.599,0 c 2.04,0 3.7,1.661 3.7,3.7 l 0,0 0,24.6 c 0,2.04 -1.66,3.7 -3.7,3.7 l 0,0 -61.599,0 z"
         id="path18-8"
         inkscape:connector-curvature="0" />
    </clipPath>
    <radialGradient
       fx="0"
       fy="0"
       cx="0"
       cy="0"
       r="1"
       gradientUnits="userSpaceOnUse"
       gradientTransform="matrix(35.880436,0,0,-17.55134,37.5,37.5)"
       spreadMethod="pad"
       id="radialGradient24">
      <stop
         style="stop-opacity:1;stop-color:#f7e27e"
         offset="0"
         id="stop26" />
      <stop
         style="stop-opacity:1;stop-color:#f7e27e"
         offset="0.681861"
         id="stop28" />
      <stop
         style="stop-opacity:1;stop-color:#e3b71e"
         offset="1"
         id="stop30" />
    </radialGradient>
  </defs>
  <sodipodi:namedview
     id="base"
     pagecolor="#ffffff"
     bordercolor="#666666"
     borderopacity="1.0"
     inkscape:pageopacity="0.0"
     inkscape:pageshadow="2"
     inkscape:zoom="1"
     inkscape:cx="-29"
     inkscape:cy="40"
     inkscape:document-units="px"
     inkscape:current-layer="layer1"
     showgrid="false"
     units="px"
     inkscape:window-width="1920"
     inkscape:window-height="1127"
     inkscape:window-x="-4"
     inkscape:window-y="0"
     inkscape:window-maximized="1" />
  <metadata
     id="metadata4322">
    <rdf:RDF>
      <cc:Work
         rdf:about="">
        <dc:format>image/svg+xml</dc:format>
        <dc:type
           rdf:resource="http://purl.org/dc/dcmitype/StillImage" />
        <dc:title></dc:title>
      </cc:Work>
    </rdf:RDF>
  </metadata>
  <g
     inkscape:label="Layer 1"
     inkscape:groupmode="layer"
     id="layer1"
     transform="translate(0,-1020.3622)">
    <g
       transform="matrix(0.45714286,0,0,-0.45714286,-1.1427677,1053.5051)"
       id="g3429">
      <g
         id="g12">
        <g
           clip-path="url(#clipPath16-9)"
           id="g14">
          <g
             id="g20">
            <g
               id="g22">
              <path
                 inkscape:connector-curvature="0"
                 id="path32"
                 style="fill:url(#radialGradient24);stroke:none"
                 d="M 6.701,53.5 C 4.659,53.5 3,51.84 3,49.8 l 0,0 0,-24.6 c 0,-2.039 1.659,-3.7 3.701,-3.7 l 0,0 61.599,0 c 2.04,0 3.7,1.661 3.7,3.7 l 0,0 0,24.6 c 0,2.04 -1.66,3.7 -3.7,3.7 l 0,0 -61.599,0 z" />
            </g>
          </g>
        </g>
      </g>
      <g
         transform="translate(68.2998,54)"
         id="g42">
        <path
           inkscape:connector-curvature="0"
           id="path44"
           style="fill:#000000;fill-opacity:1;fill-rule:nonzero;stroke:none"
           d="m 0,0 -61.6,0 c -2.319,0 -4.2,-1.88 -4.2,-4.2 l 0,-24.6 c 0,-2.319 1.881,-4.2 4.2,-4.2 L 0,-33 c 2.319,0 4.2,1.881 4.2,4.2 l 0,24.6 C 4.2,-1.88 2.319,0 0,0 m 0,-1 c 1.765,0 3.2,-1.436 3.2,-3.2 l 0,-24.6 C 3.2,-30.564 1.765,-32 0,-32 l -61.6,0 c -1.764,0 -3.2,1.436 -3.2,3.2 l 0,24.6 c 0,1.764 1.436,3.2 3.2,3.2 L 0,-1" />
      </g>
      <path
         inkscape:connector-curvature="0"
         id="path46"
         style="fill:#000000;fill-opacity:1;fill-rule:nonzero;stroke:none"
         d="m 16.893,27.439 -5.312,0 0,20.424 5.312,0 0,-20.424 z" />
      <g
         transform="translate(35.4131,47.8633)"
         id="g48">
        <path
           inkscape:connector-curvature="0"
           id="path50"
           style="fill:#000000;fill-opacity:1;fill-rule:nonzero;stroke:none"
           d="m 0,0 0,-20.424 -4.644,0 -0.006,13.789 -1.848,-13.789 -3.293,0 -1.948,13.473 -0.007,-13.473 -4.643,0 0,20.424 6.873,0 c 0.203,-1.228 0.413,-2.675 0.63,-4.342 L -8.132,-9.537 -6.911,0 0,0 Z" />
      </g>
      <g
         transform="translate(42.8555,44.3691)"
         id="g52">
        <path
           inkscape:connector-curvature="0"
           id="path54"
           style="fill:#000000;fill-opacity:1;fill-rule:nonzero;stroke:none"
           d="m 0,0 0,-13.436 c 0.766,0 1.236,0.155 1.413,0.461 0.177,0.307 0.265,1.143 0.265,2.504 l 0,7.935 c 0,0.926 -0.03,1.518 -0.088,1.779 C 1.531,-0.496 1.396,-0.305 1.186,-0.183 0.976,-0.061 0.58,0 0,0 m -5.312,3.494 3.975,0 c 2.566,0 4.3,-0.117 5.204,-0.352 C 4.771,2.906 5.458,2.52 5.93,1.98 6.4,1.442 6.694,0.843 6.812,0.183 6.931,-0.478 6.989,-1.774 6.989,-3.709 l 0,-7.152 c 0,-1.834 -0.086,-3.059 -0.259,-3.678 -0.172,-0.617 -0.472,-1.102 -0.902,-1.451 -0.429,-0.35 -0.958,-0.592 -1.59,-0.731 -0.63,-0.138 -1.58,-0.209 -2.85,-0.209 l -6.7,0 0,20.424 z" />
      </g>
      <g
         transform="translate(58.3223,39.4238)"
         id="g56">
        <path
           inkscape:connector-curvature="0"
           id="path58"
           style="fill:#000000;fill-opacity:1;fill-rule:nonzero;stroke:none"
           d="M 0,0 C 0,0.866 -0.055,1.432 -0.164,1.697 -0.273,1.962 -0.487,2.095 -0.808,2.095 -1.118,2.095 -1.32,1.979 -1.413,1.747 -1.506,1.516 -1.551,0.934 -1.551,0 l 0,-7.215 c 0,-0.9 0.052,-1.476 0.156,-1.728 0.106,-0.254 0.314,-0.379 0.625,-0.379 0.32,0 0.529,0.131 0.625,0.39 C -0.049,-8.67 0,-8.045 0,-7.051 L 0,0 Z m -1.551,8.439 0,-4.834 c 0.419,0.489 0.889,0.853 1.406,1.093 0.517,0.24 1.079,0.361 1.684,0.361 0.698,0 1.304,-0.11 1.817,-0.328 C 3.869,4.513 4.26,4.205 4.529,3.81 4.799,3.414 4.96,3.028 5.015,2.649 5.069,2.271 5.097,1.464 5.097,0.228 l 0,-7.544 c 0,-1.229 -0.082,-2.143 -0.245,-2.745 -0.165,-0.601 -0.549,-1.123 -1.156,-1.564 -0.605,-0.441 -1.324,-0.662 -2.157,-0.662 -0.598,0 -1.154,0.131 -1.671,0.392 -0.517,0.26 -0.991,0.653 -1.419,1.174 l -0.328,-1.263 -4.769,0 0,20.423 5.097,0 z" />
      </g>
    </g>
  </g>
</svg>
