<?xml version="1.0" encoding="UTF-8" standalone="no"?>
<svg
   xmlns:dc="http://purl.org/dc/elements/1.1/"
   xmlns:cc="http://creativecommons.org/ns#"
   xmlns:rdf="http://www.w3.org/1999/02/22-rdf-syntax-ns#"
   xmlns:svg="http://www.w3.org/2000/svg"
   xmlns="http://www.w3.org/2000/svg"
   xmlns:sodipodi="http://sodipodi.sourceforge.net/DTD/sodipodi-0.dtd"
   xmlns:inkscape="http://www.inkscape.org/namespaces/inkscape"
   height="16"
   version="1.1"
   viewBox="0 0 36 16"
   width="36"
   xml:space="preserve"
   id="svg4136"
   inkscape:version="0.91 r13725"
   sodipodi:docname="repeat_refresh.svg"
   inkscape:export-filename="/media/stephen/7AB7-DE16/Chrome Extensions/TMDbImportFromIMDb Gfx/repeat_refresh.png"
   inkscape:export-xdpi="90"
   inkscape:export-ydpi="90"><metadata
     id="metadata4149"><rdf:RDF><cc:Work
         rdf:about=""><dc:format>image/svg+xml</dc:format><dc:type
           rdf:resource="http://purl.org/dc/dcmitype/StillImage" /><dc:title /></cc:Work></rdf:RDF></metadata><defs
     id="defs4147" /><sodipodi:namedview
     pagecolor="#ffffff"
     bordercolor="#666666"
     borderopacity="1"
     objecttolerance="10"
     gridtolerance="10"
     guidetolerance="10"
     inkscape:pageopacity="0"
     inkscape:pageshadow="2"
     inkscape:window-width="1920"
     inkscape:window-height="1127"
     id="namedview4145"
     showgrid="false"
     inkscape:zoom="11.313708"
     inkscape:cx="12.980733"
     inkscape:cy="3.551636"
     inkscape:window-x="-4"
     inkscape:window-y="0"
     inkscape:window-maximized="1"
     inkscape:current-layer="svg4136" /><g
     id="_x32__audio_simple_repeat_2"
     transform="translate(1.5909903,-16.0005)"><g
       id="g4139" /></g><path
     id="path4"
     d="M 20.35244,13.503957 24.321553,9.534844 C 23.754955,8.609769 23.411426,7.53186 23.411426,6.366322 c 0,-3.378121 2.740345,-6.117972 6.117977,-6.117972 3.378121,0 6.117971,2.739851 6.117971,6.117972 0,3.377632 -2.73985,6.117977 -6.117971,6.117977 -1.165538,0 -2.243452,-0.343535 -3.168522,-0.908141 l -3.969113,3.967127 c -0.278815,0.278815 -0.740849,0.276823 -1.019664,0 L 20.35244,14.523621 c -0.278815,-0.278815 -0.278815,-0.740849 0,-1.019664 z m 9.176963,-3.058986 c 2.252415,0 4.078649,-1.826228 4.078649,-4.078649 0,-2.252414 -1.826234,-4.078649 -4.078649,-4.078649 -2.252421,0 -4.078649,1.826235 -4.078649,4.078649 0,2.252421 1.826228,4.078649 4.078649,4.078649 z M 4.3846758,8.132076 c 0,-0.404278 0.052473,-0.794246 0.1383371,-1.172884 L 6.8860731,8.132076 5.2403384,3.243171 0.35262565,4.890098 2.2207731,5.816122 c -0.2289718,0.733425 -0.3619424,1.509186 -0.3619424,2.31655 0,4.306936 3.4763163,7.811278 7.7695377,7.867328 l 0,-2.527038 C 6.7280588,13.417508 4.3846758,11.044907 4.3846758,8.132076 Z M 16.384824,10.183282 C 16.614392,9.449857 16.746767,8.674095 16.746767,7.867328 16.746767,3.560988 13.27045,0.055454 8.9778254,0 l 0,2.527038 c 2.8997126,0.05545 5.2430966,2.427458 5.2430966,5.34029 0,0.404278 -0.05247,0.794245 -0.138338,1.172287 l -2.36306,-1.172287 1.645735,4.888905 4.887713,-1.646927 -1.868148,-0.926024 z"
     inkscape:connector-curvature="0"
     style="fill:#4d4d4d" /></svg>