<?xml version="1.0" encoding="UTF-8" standalone="no"?>
<!-- Created with Inkscape (http://www.inkscape.org/) -->

<svg
   xmlns:dc="http://purl.org/dc/elements/1.1/"
   xmlns:cc="http://creativecommons.org/ns#"
   xmlns:rdf="http://www.w3.org/1999/02/22-rdf-syntax-ns#"
   xmlns:svg="http://www.w3.org/2000/svg"
   xmlns="http://www.w3.org/2000/svg"
   xmlns:sodipodi="http://sodipodi.sourceforge.net/DTD/sodipodi-0.dtd"
   xmlns:inkscape="http://www.inkscape.org/namespaces/inkscape"
   id="svg2"
   version="1.1"
   inkscape:version="0.91 r13725"
   xml:space="preserve"
   width="32"
   height="32"
   viewBox="0 0 32 32"
   sodipodi:docname="TMDbLogo.ai.svg"
   inkscape:export-filename="/media/stephen/7AB7-DE16/Chrome Extensions/TMDbImportFromIMDb Gfx/TMDbLogo-32.png"
   inkscape:export-xdpi="90"
   inkscape:export-ydpi="90"><metadata
     id="metadata8"><rdf:RDF><cc:Work
         rdf:about=""><dc:format>image/svg+xml</dc:format><dc:type
           rdf:resource="http://purl.org/dc/dcmitype/StillImage" /><dc:title></dc:title></cc:Work></rdf:RDF></metadata><defs
     id="defs6"><clipPath
       clipPathUnits="userSpaceOnUse"
       id="clipPath16"><path
         d="M 0,25 35,25 35,0 0,0 0,25 Z"
         id="path18"
         inkscape:connector-curvature="0" /></clipPath></defs><sodipodi:namedview
     pagecolor="#ffffff"
     bordercolor="#666666"
     borderopacity="1"
     objecttolerance="10"
     gridtolerance="10"
     guidetolerance="10"
     inkscape:pageopacity="0"
     inkscape:pageshadow="2"
     inkscape:window-width="1920"
     inkscape:window-height="1127"
     id="namedview4"
     showgrid="false"
     inkscape:zoom="1"
     inkscape:cx="-148.125"
     inkscape:cy="15.625"
     inkscape:window-x="-4"
     inkscape:window-y="0"
     inkscape:window-maximized="1"
     inkscape:current-layer="g10" /><g
     id="g10"
     inkscape:groupmode="layer"
     inkscape:label="TMDbLogo"
     transform="matrix(1.25,0,0,-1.25,0,32)"><g
       id="g12"
       transform="translate(-4.7001,0.30035801)"><g
         id="g14"
         clip-path="url(#clipPath16)"><g
           id="g20"
           transform="translate(9.4751,13.3062)"><path
             d="m 0,0 c 0,2.378 0.895,4.678 8.025,4.678 7.128,0 8.024,-2.3 8.024,-4.678 0,-2.376 -0.896,-4.675 -8.024,-4.675 C 0.895,-4.675 0,-2.376 0,0 m 22.15,0 0,0 C 22.15,4.646 20.574,9.144 8.025,9.144 -4.525,9.144 -6.1,4.646 -6.1,0 c 0,-4.648 1.575,-9.144 14.125,-9.144 3.087,0 5.507,0.271 7.407,0.751 0.872,-0.654 4.211,-2.706 4.794,-2.315 0.597,0.404 0.134,3.56 -0.103,4.701 1.679,1.666 2.027,3.821 2.027,6.007"
             style="fill:#748561;fill-opacity:1;fill-rule:nonzero;stroke:none"
             id="path22"
             inkscape:connector-curvature="0" /></g></g></g></g></svg>